<svg height="154" viewBox="0 0 176 154" width="176" xmlns="http://www.w3.org/2000/svg"><g fill="none" fill-rule="evenodd"><path d="m74.5 154c41.145214 0 74.5-33.354786 74.5-74.5 0-41.1452139-33.354786-74.5-74.5-74.5-41.1452139 0-74.5 33.3547861-74.5 74.5 0 41.145214 33.3547861 74.5 74.5 74.5z" fill="#f72c2f"/><g fill="#fff"><path d="m75.4371954 98.3851464c.2259419 1.6955146.0501642 6.1801846 0 6.6148536h-46.2248311c-.2500506-1.957769-.0386018-6.6521685 0-6.9417893s11.102213-.721928 15.2074444-3.8106332c3.5696072-6.9026035 9.2414143-76.1305871 8.489068-81.3744157-7.3972734-6.53221515-17.131541-5.85282801-17.131541-5.85282801s-.2263783-1.24554309-.2263783-3.17047332c0-1.92493024.2263783-3.84986047.2263783-3.84986047s30.7874535 1.14928768 33.5039934 1.14928768c2.7165399 9.04151942 35.1015279 73.17097092 35.1015279 73.17097092.492984.9781522 1.306388.9775356 1.816096-.0021441 0 0 30.316739-58.0128231 35.35215-73.16882682 2.684484-.09223754 13.301226-1.14928768 33.448897-1.14928768v7.02033379s-16.751996 0-16.751996 5.85282801l-.747598 37.1750242s.747598 1.1323119-7.402022 1.1323119c-7.696856 0-7.696856-1.1323119-7.696856-1.1323119l-.72722-23.6086317c-.068044-2.2089963-.911533-2.4013087-1.891532-.4142421l-18.66081 37.837079-18.110266 40.7632288s-1.584649 0-3.169297 0c-1.5846476 0-2.9429182 0-2.9429182 0s-7.8014802-19.4832387-17.2047527-40.7632288c-9.4032725-21.27999-18.4952677-40.0273772-18.4952677-40.0273772s-4.1425666 59.9560667-3.2370515 67.4293253c.679135 6.1144842 10.6397813 6.1144842 17.4747825 7.1208071.1995443 1.4617626 0 0 0 0z"/><path d="m39.7681563 114.990399c-.5908384.358769-1.2918226.538151-2.1029736.538151-1.0965561 0-1.9815486-.360027-2.6550043-1.080091-.6734556-.720064-1.0101784-1.653607-1.0101784-2.800657 0-1.27843.3630097-2.305454 1.0890399-3.081102.7260303-.775648 1.6948906-1.163466 2.9066101-1.163466.6759592 0 1.2717957.126325 1.7875276.378979v1.273371c-.57081-.404247-1.1816677-.606367-1.8325914-.606367-.7861155 0-1.4307706.284231-1.9339847.852703-.503214.568472-.7548173 1.315054-.7548173 2.239768 0 .909555.2365822 1.627081.7097536 2.152602s1.1078125.788277 1.9039422.788277c.6709521 0 1.3018379-.224859 1.8926763-.674583zm8.6964146.538151c-1.1366128 0-2.044137-.362553-2.7225998-1.087671-.6784627-.725117-1.017689-1.686452-1.017689-2.884032 0-1.303695.3529956-2.321876 1.0589974-3.054573.7060019-.732697 1.6598411-1.09904 2.8615463-1.09904 1.1466271 0 2.0416337.356237 2.6850468 1.068722.643413.712484.9651147 1.700347.9651147 2.963618 0 1.238005-.3467369 2.229657-1.0402209 2.974987-.6934841.74533-1.6235399 1.117989-2.7901955 1.117989zm.0901275-7.079333c-.7911226 0-1.4170014.271599-1.8776551.814805-.4606536.543207-.690977 1.292315-.690977 2.247347 0 .919661.2328269 1.644768.6984877 2.175341.4656607.530574 1.089036.795857 1.8701444.795857.7961297 0 1.4082391-.26023 1.8363466-.780697.4281075-.520468.6421581-1.260733.6421581-2.220819 0-.970192-.2140506-1.718037-.6421581-2.243557-.4281075-.525521-1.0402169-.788277-1.8363466-.788277zm20.2477485 6.897423h-1.2317417v-4.456797c0-.859024-.1314346-1.480543-.3943076-1.864578-.262873-.384034-.7047434-.576048-1.3256244-.576048-.5257461 0-.9726235.242544-1.3406458.72764-.3680222.485096-.5520305 1.066192-.5520305 1.743305v4.426478h-1.2317418v-4.608388c0-1.526031-.583319-2.289035-1.7499745-2.289035-.5407673 0-.986393.228648-1.3368904.685952-.3504973.457304-.5257434 1.052296-.5257434 1.784993v4.426478h-1.2317417v-7.761496h1.2317417v1.227893h.0300425c.5457745-.939873 1.3418922-1.409803 2.3883772-1.409803.5257461 0 .9838893.1478 1.3744435.443406.3905542.295605.6584303.683423.8036364 1.163466.57081-1.071253 1.4220051-1.606872 2.5536109-1.606872 1.6924015 0 2.5385896 1.053552 2.5385896 3.160687zm7.2093118-1.121779h-.0300425v4.691764h-1.2317417v-11.331481h1.2317417v1.364325h.0300425c.6058597-1.030828 1.4921041-1.546235 2.6587596-1.546235.9914068 0 1.7649929.347394 2.3207816 1.042193s.8336789 1.625815.8336789 2.793077c0 1.298642-.3129394 2.338299-.9388276 3.119-.6258881.780701-1.4820903 1.171046-2.5686321 1.171046-.9964139 0-1.764993-.434559-2.3057604-1.303689zm-.0300425-3.130369v1.083881c0 .641741.20654 1.186203.6196262 1.633401.4130862.447197.9375726.670793 1.5734749.670793.7460587 0 1.3306295-.288021 1.7537299-.864073.4231003-.576051.6346474-1.376953.6346474-2.402728 0-.864078-.1977777-1.54118-.593339-2.031329s-.9313136-.73522-1.6072728-.73522c-.716016 0-1.2918245.251387-1.7274426.754169-.4356182.502781-.653424 1.133144-.653424 1.891106zm16.935565 4.252148h-1.2317417v-1.212734h-.0300425c-.5357602.929767-1.3243675 1.394644-2.3658453 1.394644-.7660871 0-1.365679-.204647-1.7987936-.613947-.4331146-.409299-.6496686-.952498-.6496686-1.629611 0-1.450234.846188-2.294086 2.5385896-2.531581l2.3057604-.325922c0-1.318855-.5282417-1.978272-1.5847409-1.978272-.9263144 0-1.7624884.318339-2.5085471.955028v-1.273371c.7560729-.485096 1.6272961-.72764 2.6136958-.72764 1.807565 0 2.7113339.965124 2.7113339 2.895402zm-1.2317417-3.926226-1.8551232.257706c-.57081.08085-1.0014146.223597-1.2918267.428247s-.4356159.567203-.4356159 1.08767c0 .378982.133938.688478.4018181.9285.2678802.240021.6246311.36003 1.0702634.36003.6108669 0 1.1153251-.216016 1.51339-.648055.3980649-.432038.5970943-.979026.5970943-1.64098zm13.7360405 3.3047c0 2.849938-1.351898 4.274886-4.055735 4.274886-.95135 0-1.7825166-.181908-2.4935255-.54573v-1.243052c.8662292.485096 1.6923895.72764 2.4785045.72764 1.892686 0 2.839015-1.015654 2.839015-3.046993v-.848914h-.030043c-.585831.990404-1.467069 1.485599-2.643738 1.485599-.956357 0-1.7261882-.344868-2.3095159-1.034614-.5833278-.689745-.8749873-1.615709-.8749873-2.777918 0-1.318854.3141911-2.367353.9425828-3.145528s1.4883494-1.167256 2.5798984-1.167256c1.03647 0 1.80505.4194 2.30576 1.258211h.030043v-1.076301h1.231741zm-1.231741-2.887822v-1.144518c0-.616476-.20654-1.144515-.619627-1.584133-.413086-.439618-.927558-.659424-1.543432-.659424-.76108 0-1.356917.279178-1.787528.837544-.4306107.558366-.645913 1.340318-.645913 2.345882 0 .864077.20654 1.555075.619626 2.073016s.960104.776908 1.641071.776908c.69098 0 1.253019-.247597 1.686134-.742799.433115-.495203.649669-1.129355.649669-1.902476zm13.72853 3.509348h-1.231742v-4.426478c0-1.647305-.595837-2.470945-1.787528-2.470945-.615874 0-1.125339.233701-1.528411.701111-.403072.467411-.604605 1.057349-.604605 1.769834v4.426478h-1.231741v-7.761496h1.231741v1.28853h.030043c.580824-.980298 1.422005-1.47044 2.523568-1.47044.841194 0 1.484597.274126 1.93023.822385.445632.548259.668445 1.340318.668445 2.3762zm6.570909-9.732188c-.220313 0-.408076-.075795-.563297-.227388-.15522-.151592-.232829-.343607-.232829-.576048 0-.232442.077609-.42572.232829-.579839.155221-.154119.342984-.231177.563297-.231177.22532 0 .416838.077058.574562.231177s.236585.347397.236585.579839c0 .222335-.078861.411823-.236585.568469-.157724.156645-.349242.234967-.574562.234967zm.600849 9.732188h-1.231741v-7.761496h1.231741zm12.294002-3.569985h-5.430178c.020028.864077.250352 1.531074.690977 2.00101.440625.469937 1.046476.704902 1.81757.704902.866229 0 1.662347-.288021 2.388377-.864073v1.167256c-.675959.495202-1.569714.7428-2.681291.7428-1.086542 0-1.940241-.352447-2.561122-1.057352s-.931317-1.696558-.931317-2.974988c0-1.207686.339227-2.19176 1.017689-2.952248.678463-.760489 1.520896-1.140728 2.527324-1.140728s1.785021.328445 2.335803.985346c.550781.656901.826168 1.568968.826168 2.736231zm-1.261784-1.053563c-.005007-.717537-.176498-1.275894-.514478-1.675088-.337979-.399193-.807388-.598787-1.408241-.598787-.580824 0-1.074016.2097-1.479592.629105-.405576.419406-.655927.967657-.751062 1.64477z"/><path d="m131.582714 69.1288274h7.47842s0-9.0866633 12.010797-9.0866633c13.597128 0 11.557557 8.1779969 11.784178 9.0866633-.22662 11.3583291-33.766202-1.8173327-33.766202 19.3091595-2.039569 24.0796581 31.273394 17.2646601 33.766202 8.4051635 0 8.4051636 8.611515 8.8594966 13.14389 6.8149976.000001.6815.000001-3.634665 0-4.9976649-2.039568 0-5.665469.6814997-5.212232-2.725999.000001-5.2248314 0-28.1686562 0-28.1686562s2.266188-13.4028284-19.262598-14.7658279c-18.809361 1.3629995-19.942455 11.3583291-19.942455 16.1288274zm31.500014 14.7658278c0-2.1797629 0-5.4487796 0-5.6791645-3.399282 2.4988324-12.799337 2.9531655-13.823748 2.9531655-12.690653 2.725999-11.33094 5.6791646-11.33094 5.6791646s-1.133094 4.9976648.679857 8.6323301c1.81295 2.725999 17.676267 7.9508301 24.474831-7.21211.000001-1.007767 0-2.2545231 0-4.3733857z"/></g></g></svg>