<svg height="174" viewBox="0 0 177 174" width="177" xmlns="http://www.w3.org/2000/svg" xmlns:xlink="http://www.w3.org/1999/xlink"><defs><path id="a" d="m123.799119 110.162876h7.925659s0-9.65151 12.729089-9.65151c14.410289 0 12.248744 8.686359 12.488917 9.65151-.240172 12.064387-35.785551-1.930302-35.785551 20.509458.940969 28.307579 33.143664 18.337868 35.785551 8.927646 0 8.927647 8.090265 9.410222 12.893693 7.238633.000001.723863.000001-3.860604 0-5.308331-2.161542 0-4.968033.723864-4.487691-2.895453.000001-5.549618 0-29.919679 0-29.919679s1.826407-14.6451449-20.414576-15.6837035c-20.245377 1.0385586-21.135091 12.0643875-21.135091 17.1314295zm33.056227 16.426768c0-2.393488 0-5.983031 0-6.236005-3.53486 2.743842-4.938821 1.837474-14.375098 3.242723-10.390849 1.815698-12.04916 5.984579-12.4244 6.647116-.508388 1.148362-2.033552 4.83142 1.348507 9.067618 2.210208 3.279343 18.381271 8.730408 25.450991-7.919256 0-1.106579 0-2.475579 0-4.802196z"/><filter id="b" height="200%" width="200%" x="-50%" y="-50%"><feOffset dx=".5" dy="2" in="SourceAlpha" result="shadowOffsetOuter1"/><feGaussianBlur in="shadowOffsetOuter1" result="shadowBlurOuter1" stdDeviation="2"/><feColorMatrix in="shadowBlurOuter1" type="matrix" values="0 0 0 0 0   0 0 0 0 0   0 0 0 0 0  0 0 0 0.5 0"/></filter><path id="c" d="m61.7512389 127.118973c.2433922 1.799205.0767642 6.364164 0 7.019392h-46.6350509c-.8510816-2.077498-.3118483-6.636861 0-7.366322h-1.0532949s11.9596756-.766078 16.3819683-4.043676c3.8453004-7.32474 9.9551609-80.7864321 9.1447083-86.3509525-7.9685906-6.9316996-19.3444541-6.2107638-19.3444541-6.2107638s-.2438623-1.3217156-.2438623-3.3643669.2438623-4.0853027.2438623-4.0853027 34.0550603 1.2195736 36.981408 1.2195736c2.9263477 9.5944629 37.8675619 77.7534663 37.8675619 77.7534663.5006713.978519 1.321422.988004 1.8382025.00971 0 0 32.721342-61.6802915 38.145656-77.7631763 2.891816-.0978784 15.21831-1.2195736 36.922056-1.2195736v7.4496696s-18.935596 0-18.935596 6.2107638l-.805338 47.2223836s.805338 1.2015596-7.973705 1.2015596c-8.291311 0-8.291311-1.2015596-8.291311-1.2015596l-.817196-33.0682411c-.054627-2.2104829-.901687-2.3989975-1.8905-.4239812l-20.215361 40.3773672-19.508985 43.256146s-1.7070369 0-3.4140724 0c-1.7070354 0-3.17021 0-3.17021 0s-8.4040157-20.674756-18.5335357-43.256146c-10.1295199-22.5813899-19.9237215-42.4752929-19.9237215-42.4752929s-4.4625115 63.6227419-3.4870603 71.5530349c.7315869 6.488422 9.3549387 6.488422 16.7178308 7.556288.2149558 1.551158 0 0 0 0z"/><filter id="d" height="200%" width="200%" x="-50%" y="-50%"><feOffset dx=".5" dy="2" in="SourceAlpha" result="shadowOffsetOuter1"/><feGaussianBlur in="shadowOffsetOuter1" result="shadowBlurOuter1" stdDeviation="2"/><feColorMatrix in="shadowBlurOuter1" type="matrix" values="0 0 0 0 0   0 0 0 0 0   0 0 0 0 0  0 0 0 0.5 0"/></filter><path id="e" d="m32.6574877 13.6903941c-.5741897.752885-1.319258 1.3637693-2.2352272 1.8326714s-2.0164829.7033496-3.301574.7033496c-1.1073658 0-2.1292714-.1816143-3.0657474-.5448483s-1.7430636-.8717539-2.4197872-1.5255751c-.6767235-.6538212-1.2064739-1.4331116-1.589267-2.3378944-.3827931-.9047829-.5741868-1.89870826-.5741868-2.98180599 0-1.09630624.1948114-2.09683578.5844401-3.00161864s.9296323-1.67746904 1.6200271-2.31808173c.6903947-.64061268 1.5072356-1.13922641 2.4505472-1.49585615s1.9686349-.53494194 3.0760006-.53494194c.4921626 0 .9911533.04622909 1.496987.13868865.5058338.09245957.9911535.23114683 1.4559737.41606595.4648202.18491913.8886205.41276249 1.2714136.68353692.3827931.27077444.7108966.58447182.9843202.94110156l-1.5995203 1.18875985c-.3554508-.47550632-.8578592-.86845356-1.5072404-1.17885352-.6493811-.31039996-1.3500187-.46559761-2.1019338-.46559761-.8476133 0-1.6097703.14859349-2.2864938.44578494-.6767235.29719146-1.2543223.70334701-1.7328137 1.21847886s-.8476078 1.11280791-1.1073602 1.79304612c-.2597525.68023821-.3896268 1.40339322-.3896268 2.16948674 0 .79251053.1264565 1.53217589.3793734 2.21901839s.6151978 1.2845185 1.0868536 1.7930461 1.0458368.908079 1.7225604 1.1986662c.6767235.2905872 1.432045.4358786 2.2659871.4358786.820271 0 1.5653392-.1584997 2.2352272-.4755039.6698879-.3170042 1.2235625-.7792951 1.6610404-1.3868865zm7.5006248 2.1326018h-2.1805405v-10.62337117h2.1805405zm.3711558-14.45585319c0 .38847965-.1430482.70971762-.4291489.96372355-.2861007.25400592-.6301897.38100698-1.0322772.38100698s-.7423102-.13073638-1.0206785-.39221307-.4175503-.57897934-.4175503-.95251746c0-.38847965.139182-.71345295.4175503-.97492964s.618591-.39221307 1.0206785-.39221307.7461765.13073638 1.0322772.39221307.4291489.58644999.4291489.97492964zm14.0212584 8.20285625c-.0154649-.4183627-.0889221-.81057185-.2203738-1.17663922-.1314516-.36606736-.32476-.68357001-.5799309-.95251746s-.5721967-.48186099-.9510868-.638747c-.3788902-.15688602-.8234995-.23532785-1.3338413-.23532785-.4639471 0-.9008241.07844183-1.310644.23532785-.40982.15688601-.7655074.36979955-1.067073.638747s-.5490004.5864501-.7423117.95251746c-.1933113.36606737-.3054301.75827652-.33636 1.17663922zm2.2037377.85166264v.3585948c0 .1195322-.0077323.2390626-.0231972.3585948h-8.722162c.0154649.4482458.1198515.8703375.3131628 1.266288.1933113.3959504.4523445.7396003.7771075 1.03096.324763.2913598.6997812.5192146 1.1250661.6835714.4252848.1643568.8776265.2465339 1.3570385.2465339.7423154 0 1.3840992-.1568836 1.9253708-.4706557.5412717-.313772.9665501-.6947752 1.2758482-1.1430209l1.5310178 1.1878453c-.5876663.7470762-1.2797104 1.2961691-2.0761529 1.6472949s-1.681795.5266861-2.6560839.5266861c-.8351048 0-1.6083384-.1344717-2.3197239-.4034191-.7113856-.2689475-1.3222401-.6462153-1.8325819-1.1318149-.5103419-.4855996-.9124233-1.0720456-1.2062565-1.7593558-.2938331-.6873101-.4407475-1.4493165-.4407475-2.2860419 0-.82178387.1430482-1.5800549.4291489-2.27483581.2861007-.69478092.684316-1.28869763 1.1946578-1.78176796.5103418-.49307032 1.113464-.87780882 1.8093847-1.15422704.6959206-.27641821 1.4459572-.41462525 2.2501322-.41462525s1.5348807.12700106 2.1921391.38100699c.6572584.25400592 1.2139866.6200678 1.6702012 1.0981966.4562147.4781288.808036 1.05710421 1.0554744 1.7369436.2474385.6798394.3711558 1.44558107.3711558 2.29724797zm7.069635 4.0566038c0 .3884797-.1469144.7321296-.4407476 1.0309601-.2938331.2988305-.6649853.4482435-1.1134675.4482435-.4330173 0-.8003032-.1456777-1.1018688-.4370374-.3015656-.2913598-.4523462-.6312744-.4523462-1.019754 0-.4034212.1469144-.7508064.4407476-1.0421662.2938331-.2913597.6649852-.4370374 1.1134674-.4370374s.8196344.1419424 1.1134675.4258313c.2938332.283889.4407476.6275389.4407476 1.0309601z"/><filter id="f" height="200%" width="200%" x="-50%" y="-50%"><feOffset dx=".5" dy="2" in="SourceAlpha" result="shadowOffsetOuter1"/><feGaussianBlur in="shadowOffsetOuter1" result="shadowBlurOuter1" stdDeviation="2"/><feColorMatrix in="shadowBlurOuter1" type="matrix" values="0 0 0 0 0   0 0 0 0 0   0 0 0 0 0  0 0 0 0.5 0"/></filter></defs><g fill="none" fill-rule="evenodd" transform="translate(0 2)"><path d="m74.3096055 171.336192c41.0400615 0 74.3096055-33.269544 74.3096055-74.3096054 0-41.0400619-33.269544-74.3096055-74.3096055-74.3096055-41.0400619 0-74.3096055 33.2695436-74.3096055 74.3096055 0 41.0400614 33.2695436 74.3096054 74.3096055 74.3096054z" fill="#f72c2f"/><use fill="#000" filter="url(#b)" xlink:href="#a"/><use fill="#fff" fill-rule="evenodd" xlink:href="#a"/><use fill="#000" filter="url(#d)" xlink:href="#c"/><use fill="#fff" fill-rule="evenodd" xlink:href="#c"/><use fill="#000" filter="url(#f)" xlink:href="#e"/><use fill="#fff" fill-rule="evenodd" xlink:href="#e"/></g></svg>